<svg width="60" height="52" viewBox="0 0 25 24" fill="none" xmlns="http://www.w3.org/2000/svg"><mask id="path-1-outside-1" maskUnits="userSpaceOnUse" x="1.25" y="6" width="21" height="12" fill="#000"><path fill="#fff" d="M1.25 6h21v12h-21z"></path><path d="M16.209 14.471a.74.74 0 0 1 0-1.478.74.74 0 0 1 0 1.478zm-8.169 0a.74.74 0 0 1 0-1.478.74.74 0 0 1 0 1.478zm8.434-4.452l1.477-2.558a.307.307 0 0 0-.532-.307l-1.496 2.59a9.118 9.118 0 0 0-3.799-.813c-1.37 0-2.655.291-3.798.813L6.83 7.154a.308.308 0 0 0-.532.307l1.477 2.558C5.239 11.399 3.504 13.966 3.25 17h17.749c-.254-3.034-1.989-5.601-4.525-6.981"></path></mask><path d="M17.951 7.46l.866.5-.866-.5zm-.112-.419l.5-.865-.002-.002-.498.867zm-.42.113l-.866-.502v.002l.866.5zm-1.496 2.59l-.415.91.827.377.454-.787-.866-.5zm-7.597 0l-.866.5.454.787.827-.377-.415-.91zM6.83 7.154l.866-.5v-.002l-.866.502zm-.42-.113l-.499-.867-.001.001.5.866zm-.112.42l-.866.5.866-.5zm1.477 2.558l.478.879.9-.49-.512-.889-.866.5zM3.25 17l-.997-.083L2.163 18H3.25v-1zm17.749 0v1h1.087l-.09-1.083-.997.083zm-4.79-3.529a.26.26 0 0 1 .261.26h-2c0 .96.779 1.74 1.739 1.74v-2zm.261.26a.26.26 0 0 1-.261.262v-2c-.96 0-1.739.779-1.739 1.739h2zm-.261.262a.26.26 0 0 1-.26-.261h2c0-.96-.78-1.74-1.74-1.74v2zm-.26-.261a.26.26 0 0 1 .26-.261v2c.96 0 1.74-.78 1.74-1.74h-2zM8.04 13.47a.26.26 0 0 1 .261.26h-2c0 .96.779 1.74 1.739 1.74v-2zm.261.26a.26.26 0 0 1-.261.262v-2c-.96 0-1.739.779-1.739 1.739h2zm-.261.262a.26.26 0 0 1-.261-.261h2c0-.96-.78-1.74-1.739-1.74v2zm-.261-.261a.26.26 0 0 1 .261-.261v2c.96 0 1.739-.78 1.739-1.74h-2zm9.561-3.213l1.477-2.558-1.732-1-1.477 2.558 1.732 1zm1.478-2.56c.172-.3.22-.656.13-.99l-1.932.517a.692.692 0 0 1 .069-.524l1.733.998zm.13-.99a1.307 1.307 0 0 0-.608-.793l-1.002 1.73a.692.692 0 0 1-.322-.42l1.932-.517zm-.61-.795c-.3-.172-.657-.22-.991-.13l.517 1.932a.692.692 0 0 1-.524-.068l.997-1.734zm-.991-.13c-.335.09-.62.309-.794.608l1.731 1.003a.693.693 0 0 1-.42.321l-.517-1.931zm-.794.61l-1.496 2.59 1.732 1 1.496-2.59-1.732-1zm-.215 2.18a10.119 10.119 0 0 0-4.214-.903v2c1.228 0 2.371.26 3.384.723l.83-1.82zm-4.214-.903c-1.513 0-2.94.322-4.213.903l.83 1.82a8.12 8.12 0 0 1 3.383-.723v-2zM9.192 9.244l-1.496-2.59-1.732 1 1.496 2.59 1.732-1zM7.695 6.652a1.308 1.308 0 0 0-.793-.607l-.517 1.931a.692.692 0 0 1-.42-.321l1.73-1.003zm-.793-.607a1.308 1.308 0 0 0-.99.13l.997 1.733a.692.692 0 0 1-.524.068l.517-1.931zm-.992.13c-.3.174-.52.459-.609.794l1.932.517a.693.693 0 0 1-.322.42L5.91 6.177zM5.3 6.97c-.09.335-.043.691.13.991l1.733-.999a.693.693 0 0 1 .07.525L5.3 6.97zm.13.992l1.478 2.558 1.732-1-1.477-2.558-1.732 1zm1.866 1.18c-2.83 1.538-4.761 4.403-5.044 7.776l1.994.166c.225-2.694 1.762-4.965 4.006-6.185L7.297 9.14zM3.25 18h17.749v-2H3.25v2zm18.745-1.083c-.282-3.373-2.214-6.238-5.043-7.776l-.956 1.756c2.244 1.22 3.78 3.492 4.006 6.186l1.994-.166z" fill="rgb(88, 110, 117)" mask="url(#path-1-outside-1)"></path><circle cx="8.051" cy="14" r="1" fill="#697D95"></circle><circle cx="16.199" cy="14" r="1" fill="rgb(88, 110, 117)"></circle></svg>