<svg width="60" height="52" viewBox="0 0 25 24" fill="none" xmlns="http://www.w3.org/2000/svg"><path d="M13.129 5.762l.084.002c1 0 2.085-.564 2.763-1.436.7-.899 1.019-1.977.873-2.958a.434.434 0 0 0-.459-.369c-.985.07-2.1.668-2.775 1.49-.734.894-1.07 1.984-.9 2.916a.434.434 0 0 0 .414.355zm1.157-2.72c.418-.51 1.095-.932 1.73-1.1-.03.863-.499 1.564-.724 1.853-.438.563-1.112.968-1.754 1.074.012-.858.56-1.598.748-1.827z" fill="rgb(88, 110, 117)"></path><path d="M20.719 14.088a.434.434 0 0 0-.248-.239c-1.786-.673-2.345-2.609-1.84-4.017.251-.698.743-1.265 1.424-1.64a.434.434 0 0 0 .13-.651c-.906-1.13-2.192-1.805-3.442-1.805-.876 0-1.468.225-1.991.423-.385.146-.718.272-1.099.272-.421 0-.806-.137-1.252-.297-.52-.186-1.11-.398-1.848-.398-1.42 0-2.861.86-3.76 2.244-.331.515-.564 1.151-.692 1.892-.359 2.106.25 4.616 1.626 6.713.781 1.188 1.765 2.403 3.142 2.415h.028c.573 0 .96-.172 1.332-.34.395-.175.767-.342 1.442-.345h.022c.662 0 1.022.165 1.404.34.366.168.744.342 1.316.342h.026c1.35-.012 2.371-1.29 3.194-2.54.505-.775.698-1.17 1.08-2.024a.434.434 0 0 0 .006-.345zm-1.812 1.893c-.655.996-1.529 2.14-2.476 2.149h-.018c-.383 0-.635-.116-.954-.263-.408-.187-.915-.42-1.766-.42h-.027c-.857.005-1.375.236-1.79.422-.33.147-.59.264-.98.264h-.02c-.974-.009-1.807-1.086-2.424-2.024-1.26-1.919-1.819-4.196-1.496-6.09.108-.625.298-1.152.566-1.568.74-1.14 1.9-1.847 3.031-1.847.587 0 1.058.168 1.556.347.478.17.972.348 1.544.348.54 0 .98-.167 1.406-.329.476-.18.967-.366 1.684-.366.852 0 1.737.41 2.44 1.116a3.834 3.834 0 0 0-1.367 1.82 4.039 4.039 0 0 0 1.927 4.933c-.26.566-.446.91-.836 1.508z" fill="rgb(88, 110, 117)"></path></svg>